<svg width="102" height="102" viewBox="0 0 102 102" fill="none" xmlns="http://www.w3.org/2000/svg">
<g clip-path="url(#clip0_1_786)">
<rect width="102" height="102" rx="51" fill="url(#paint0_linear_1_786)"/>
<path d="M40.1197 64.1866V64.3331C40.0794 67.4333 37.4727 69.7644 32.2997 71.3266C38.5329 75.8598 44.7665 79.4866 50.9997 79.4866C57.2329 79.4866 63.4665 75.8598 69.6997 71.3266C64.5619 69.7626 61.9552 67.4279 61.8797 64.3226C61.8797 63.7691 61.8838 62.983 61.8875 61.5071C61.8875 61.2727 61.8881 61.0326 61.8892 60.7869C62.2608 60.8393 62.2292 60.806 61.8892 60.7115C61.8994 56.829 61.9161 51.6083 61.9392 46.3026C66.8121 39.9864 65.022 32.5816 63.495 32.7662C61.6233 32.9943 45.4043 17.6032 42.2933 16.8141C39.1823 16.0249 31.2797 18.5725 29.9197 25.67C28.5597 32.7675 27.9912 50.6577 33.1497 57.8C34.6176 59.8326 36.9296 60.6276 40.0857 60.1851C40.0901 61.6706 40.099 62.5043 40.1197 64.1866Z" fill="url(#paint1_linear_1_786)"/>
<path d="M40.1201 60.18C47.6001 59.33 52.3601 56.1 52.3601 56.1C52.3601 56.1 47.2125 62.9398 40.1201 64.26V60.18Z" fill="#FFBE94"/>
<path d="M64.4301 46.4101C66.7727 40.7763 76.1601 29.3023 68.0681 22.1623C65.3481 8.90228 50.3201 10.3701 40.2901 13.4301C33.5489 15.4867 28.4581 19.5501 27.3701 16.4901C20.5701 22.1623 23.9755 27.7101 28.4581 29.3023C32.5265 30.7473 39.4061 32.1923 51.1041 30.8323C53.1938 30.5892 52.7562 36.989 53.8728 37.6809C55.548 38.7189 56.8481 32.1923 61.4408 34.152C66.0336 36.1118 63.3081 45.1986 58.3781 45.1986C56.6781 45.1986 55.8281 49.8726 60.4181 52.0826C63.7501 53.7201 62.9079 50.0708 64.4301 46.4101Z" fill="url(#paint2_linear_1_786)"/>
<path d="M86.7002 81.7047C89.937 88.2861 91.8002 103.465 91.8002 103.465H10.2002C10.2002 103.465 12.0641 88.2844 15.3002 81.7047C18.5363 75.1251 37.4342 69.0224 37.4342 69.0224C41.0766 76.5 61.0669 76.5 64.5563 69.02C64.5563 69.02 83.4634 75.1234 86.7002 81.7047Z" fill="url(#paint3_linear_1_786)"/>
<mask id="mask0_1_786" style="mask-type:alpha" maskUnits="userSpaceOnUse" x="10" y="69" width="82" height="35">
<path d="M86.7002 81.7047C89.937 88.2861 91.8002 103.465 91.8002 103.465H10.2002C10.2002 103.465 12.0641 88.2844 15.3002 81.7047C18.5363 75.1251 37.4342 69.0224 37.4342 69.0224C41.0766 76.5 61.0669 76.5 64.5563 69.02C64.5563 69.02 83.4634 75.1234 86.7002 81.7047Z" fill="url(#paint4_linear_1_786)"/>
</mask>
<g mask="url(#mask0_1_786)">
<path d="M6.7998 96.5601V93.8401H95.1998V96.5601H6.7998ZM6.7998 89.7601V87.0401H95.1998V89.7601H6.7998ZM6.7998 82.9601V80.2401H95.1998V82.9601H6.7998Z" fill="url(#paint5_linear_1_786)"/>
</g>
</g>
<defs>
<linearGradient id="paint0_linear_1_786" x1="51" y1="0" x2="51" y2="102" gradientUnits="userSpaceOnUse">
<stop stop-color="#1D0024"/>
<stop offset="1" stop-color="#100014"/>
</linearGradient>
<linearGradient id="paint1_linear_1_786" x1="49.3411" y1="16.676" x2="49.3411" y2="79.4866" gradientUnits="userSpaceOnUse">
<stop stop-color="#FFD4B3"/>
<stop offset="1" stop-color="#FFDCC2"/>
</linearGradient>
<linearGradient id="paint2_linear_1_786" x1="47.4098" y1="52.4853" x2="47.4098" y2="11.3519" gradientUnits="userSpaceOnUse">
<stop stop-color="#E6864E"/>
<stop offset="1" stop-color="#E67240"/>
</linearGradient>
<linearGradient id="paint3_linear_1_786" x1="51.0002" y1="103.465" x2="51.0002" y2="69.02" gradientUnits="userSpaceOnUse">
<stop stop-color="#E6864E"/>
<stop offset="1" stop-color="#E67240"/>
</linearGradient>
<linearGradient id="paint4_linear_1_786" x1="51.0002" y1="103.465" x2="51.0002" y2="69.02" gradientUnits="userSpaceOnUse">
<stop stop-color="#E6864E"/>
<stop offset="1" stop-color="#E67240"/>
</linearGradient>
<linearGradient id="paint5_linear_1_786" x1="50.9998" y1="80.2401" x2="50.9998" y2="96.5601" gradientUnits="userSpaceOnUse">
<stop stop-color="#F7B186"/>
<stop offset="1" stop-color="#FFC299"/>
</linearGradient>
<clipPath id="clip0_1_786">
<rect width="102" height="102" rx="51" fill="white"/>
</clipPath>
</defs>
</svg>
